<?xml version="1.0" encoding="UTF-8"?>
<svg version="1.1" xmlns="http://www.w3.org/2000/svg" width="284" height="177">
<path d="M0 0 C93.72 0 187.44 0 284 0 C284 58.41 284 116.82 284 177 C190.28 177 96.56 177 0 177 C0 118.59 0 60.18 0 0 Z " fill="#000000" transform="translate(0,0)"/>
<path d="M0 0 C0.90825027 -0.00029205 1.81650055 -0.00058411 2.75227356 -0.00088501 C5.72817838 0.00049858 8.70382689 0.0160138 11.6796875 0.03173828 C13.7533352 0.03547186 15.82698467 0.03831721 17.90063477 0.04031372 C23.33889703 0.04792297 28.77705121 0.0675481 34.215271 0.08972168 C39.77240538 0.11023858 45.32955735 0.11932791 50.88671875 0.12939453 C61.77608896 0.15079664 72.66537922 0.18489973 83.5546875 0.22705078 C82.98088883 0.89161789 82.98088883 0.89161789 82.39549828 1.5696106 C81.87797304 2.17086761 81.36044781 2.77212463 80.82723999 3.39160156 C80.0010573 4.35117767 80.0010573 4.35117767 79.15818405 5.33013916 C77.85193309 6.87541384 76.59419758 8.46159573 75.35171509 10.05859375 C71.91296588 14.09936359 69.22167801 16.81090851 63.98309326 18.11865234 C59.73008416 18.44530697 55.58694442 18.45804013 51.328125 18.35205078 C49.76974184 18.35075689 48.21134839 18.3541797 46.65298462 18.36206055 C42.57468551 18.37148481 38.49919848 18.32330787 34.42144775 18.26068115 C28.6763066 18.1831411 22.93054366 18.1852026 17.18496704 18.17773438 C14.13261706 18.17354291 11.0816633 18.14798844 8.02963257 18.10449219 C-3.64636565 17.71764192 -3.64636565 17.71764192 -14.1328125 22.14501953 C-14.8959375 22.89396484 -15.6590625 23.64291016 -16.4453125 24.41455078 C-17.28964844 25.22279297 -18.13398437 26.03103516 -19.00390625 26.86376953 C-19.80957031 27.64365234 -20.61523438 28.42353516 -21.4453125 29.22705078 C-23.39963642 30.93389979 -25.37386262 32.61385968 -27.35571289 34.28857422 C-29.50610358 36.19520997 -29.50610358 36.19520997 -31.32177734 38.51782227 C-34.42996442 42.19608132 -36.81502056 44.85151643 -41.61010742 45.95605469 C-45.11603206 46.11055391 -48.5062774 46.01626888 -52.0078125 45.78955078 C-53.80702148 45.72864258 -53.80702148 45.72864258 -55.64257812 45.66650391 C-58.5811109 45.56113819 -61.51101898 45.41381628 -64.4453125 45.22705078 C-60.09669235 39.96114357 -55.46683091 35.28542527 -50.4453125 30.66455078 C-45.4323277 26.01868812 -40.51373006 21.32535746 -35.76220703 16.41186523 C-25.11788103 5.43129348 -15.55082366 -0.13298227 0 0 Z " fill="#E80101" transform="translate(116.4453125,65.77294921875)"/>
<path d="M0 0 C1.02543915 -0.00065712 1.02543915 -0.00065712 2.07159424 -0.00132751 C4.31186345 0.00074818 6.55136684 0.02401993 8.79150391 0.04760742 C10.35234163 0.05320775 11.91318465 0.05747579 13.47402954 0.06047058 C17.56763453 0.07188504 21.66091652 0.10132251 25.75439453 0.13458252 C29.9372928 0.16535705 34.12024363 0.17899164 38.30322266 0.1940918 C46.49998491 0.22619586 54.69648539 0.27735057 62.89306641 0.34057617 C61.51697272 1.99188859 60.13312504 3.63719984 58.71643066 5.2538147 C57.4843576 6.66386899 56.28177334 8.10015744 55.10778809 9.55892944 C51.57678613 13.61583867 49.0859106 15.80722442 43.61376953 16.24536133 C41.63357608 16.24546578 39.65307928 16.20489572 37.67431641 16.12963867 C36.61700317 16.1262851 35.55968994 16.12293152 34.47033691 16.11947632 C31.10960626 16.1059885 27.75294112 16.04082965 24.39306641 15.96557617 C21.03354322 15.90094213 17.67592282 15.84863082 14.3157959 15.83309937 C12.23186312 15.82271821 10.14781822 15.78435717 8.06506348 15.71353149 C0.91681868 15.66670004 -2.97058594 17.39581942 -8.10693359 22.34057617 C-8.88143608 23.17014076 -8.88143608 23.17014076 -9.67158508 24.01646423 C-11.82397704 26.00205022 -13.55727784 25.6811782 -16.43115234 25.63354492 C-17.45917969 25.62387695 -18.48720703 25.61420898 -19.54638672 25.60424805 C-21.15416992 25.56654297 -21.15416992 25.56654297 -22.79443359 25.52807617 C-23.87789062 25.51454102 -24.96134766 25.50100586 -26.07763672 25.48706055 C-28.75456764 25.45168261 -31.43050197 25.40231806 -34.10693359 25.34057617 C-32.98257106 21.96748857 -32.03350627 21.1893452 -29.35693359 18.96557617 C-25.50399959 15.69434624 -21.91813224 12.27194913 -18.45849609 8.58276367 C-17.86810547 7.9665918 -17.27771484 7.35041992 -16.66943359 6.71557617 C-16.13447266 6.14581055 -15.59951172 5.57604492 -15.04833984 4.98901367 C-10.33728087 0.98887909 -6.08856009 -0.03297054 0 0 Z " fill="#EA0000" transform="translate(117.10693359375,85.659423828125)"/>
<path d="M0 0 C9.24 0 18.48 0 28 0 C-11.21656041 45.75265382 -11.21656041 45.75265382 -24.51171875 47.49609375 C-30.87947339 47.76460121 -36.93272005 46.95081769 -43 45 C-38.45448274 39.54277697 -33.62225332 34.50414804 -28.57421875 29.51171875 C-27.78602249 28.72730911 -26.99782623 27.94289948 -26.18574524 27.13471985 C-23.68875132 24.64986311 -21.18853271 22.16829119 -18.6875 19.6875 C-15.37606415 16.40258342 -12.06790166 13.11442124 -8.76171875 9.82421875 C-7.99824631 9.06904465 -7.23477386 8.31387054 -6.44816589 7.53581238 C-5.7468605 6.83781021 -5.04555511 6.13980804 -4.32299805 5.4206543 C-3.70377975 4.80667282 -3.08456146 4.19269135 -2.44657898 3.56010437 C-0.90518649 2.04387966 -0.90518649 2.04387966 0 0 Z " fill="#E90101" transform="translate(204,66)"/>
<path d="M0 0 C2.31 0 4.62 0 7 0 C7.33 0.66 7.66 1.32 8 2 C8.33 1.34 8.66 0.68 9 0 C9.66 0 10.32 0 11 0 C11 1.98 11 3.96 11 6 C7.7 6 4.4 6 1 6 C0.67 4.02 0.34 2.04 0 0 Z " fill="#930909" transform="translate(199,105)"/>
<path d="M0 0 C-0.33 0.99 -0.66 1.98 -1 3 C-1.81984375 3.12117188 -2.6396875 3.24234375 -3.484375 3.3671875 C-4.56203125 3.53476563 -5.6396875 3.70234375 -6.75 3.875 C-7.81734375 4.03742188 -8.8846875 4.19984375 -9.984375 4.3671875 C-12.67708871 4.93223882 -14.63572439 5.63422914 -17 7 C-16.5 4.625 -16.5 4.625 -15 2 C-9.87035713 0.17419491 -5.40398314 -0.22516596 0 0 Z " fill="#150101" transform="translate(120,83)"/>
<path d="M0 0 C2.31 0 4.62 0 7 0 C6.01 0.495 6.01 0.495 5 1 C5 2.65 5 4.3 5 6 C3.68 6 2.36 6 1 6 C0.67 4.02 0.34 2.04 0 0 Z " fill="#6D0808" transform="translate(199,105)"/>
</svg>
